<?xml version="1.0" standalone="no"?>
<!DOCTYPE svg PUBLIC "-//W3C//DTD SVG 20010904//EN"
 "http://www.w3.org/TR/2001/REC-SVG-20010904/DTD/svg10.dtd">
<svg version="1.0" xmlns="http://www.w3.org/2000/svg"
 width="1317.000000pt" height="1308.000000pt" viewBox="0 0 1317.000000 1308.000000"
 preserveAspectRatio="xMidYMid meet">
<metadata>
Created by potrace 1.15, written by Peter Selinger 2001-2017
</metadata>
<g transform="translate(0.000000,1308.000000) scale(0.100000,-0.100000)"
fill="#000000" stroke="none">
<path d="M6263 13059 c-1361 -67 -2666 -551 -3737 -1385 -485 -378 -954 -868
-1309 -1365 -544 -763 -907 -1609 -1096 -2554 -115 -573 -146 -1254 -85 -1858
108 -1082 472 -2093 1077 -2991 629 -933 1482 -1686 2492 -2196 781 -394 1579
-616 2490 -692 224 -18 808 -15 1035 6 590 54 1032 146 1555 321 2261 756
3943 2684 4370 5008 77 419 100 699 100 1192 0 404 -6 502 -45 815 -245 1939
-1363 3673 -3040 4717 -1138 708 -2459 1049 -3807 982z m952 -143 c425 -46
807 -120 1171 -225 1568 -454 2907 -1484 3746 -2881 755 -1256 1052 -2748 837
-4205 -345 -2351 -1976 -4317 -4242 -5116 -372 -131 -838 -244 -1227 -298
-360 -50 -465 -56 -920 -55 -465 0 -576 7 -940 60 -1611 233 -3085 1076 -4107
2349 -450 562 -810 1210 -1050 1895 -323 920 -428 1949 -299 2936 138 1052
549 2071 1186 2939 358 489 839 973 1335 1343 687 514 1479 889 2310 1096 358
89 729 146 1160 180 28 2 239 2 470 1 302 -2 462 -8 570 -19z"/>
<path d="M6575 12529 c-3 -118 -5 -279 -3 -359 l3 -145 66 -3 66 -3 6 152 c4
84 7 244 7 356 l0 203 -24 0 c-13 0 -44 3 -68 6 l-46 6 -7 -213z"/>
<path d="M6849 12685 c-1 -25 -2 -51 -3 -57 -1 -9 29 -15 99 -21 55 -5 102
-10 104 -13 3 -2 -5 -133 -17 -291 -11 -158 -20 -288 -18 -290 1 -1 34 -5 72
-9 l70 -6 17 248 c10 137 20 270 24 296 l6 48 56 -5 c31 -3 77 -8 102 -11 l46
-4 7 56 c4 31 4 59 2 61 -5 6 -458 42 -523 43 l-43 0 -1 -45z"/>
<path d="M5933 12707 l-133 -9 0 -27 c0 -14 11 -168 25 -341 14 -173 25 -321
25 -327 0 -14 64 -18 116 -7 l29 6 -11 141 c-7 100 -7 144 0 150 6 4 33 6 60
3 59 -7 76 -21 193 -167 l85 -107 81 5 c45 3 84 7 86 9 9 8 -182 242 -218 265
l-40 26 49 22 c59 27 96 67 110 123 26 94 -27 205 -113 237 -33 13 -156 12
-344 -2z m285 -127 c27 -26 38 -65 26 -99 -14 -40 -66 -59 -181 -67 l-103 -7
0 45 c0 25 -3 66 -6 91 l-7 46 59 4 c160 10 189 8 212 -13z"/>
<path d="M7576 12641 c-6 -20 -114 -627 -118 -660 -3 -23 2 -25 62 -37 36 -6
68 -9 71 -6 8 9 129 685 124 690 -2 2 -33 10 -69 17 -58 10 -66 10 -70 -4z"/>
<path d="M5240 12593 c-30 -8 -57 -17 -59 -19 -4 -4 -110 -747 -107 -751 1 -1
32 6 70 15 78 19 82 23 91 124 l6 67 131 30 c71 17 135 31 141 31 7 0 33 -31
59 -69 l47 -68 71 16 c39 10 71 21 70 27 0 5 -97 145 -216 312 -140 196 -222
302 -232 301 -10 0 -42 -8 -72 -16z m191 -393 c-19 -11 -162 -42 -168 -36 -3
3 0 51 6 108 21 180 12 176 98 48 49 -73 71 -115 64 -120z"/>
<path d="M7930 12595 c0 -3 -43 -149 -95 -324 -52 -176 -95 -327 -95 -334 0
-16 110 -51 121 -39 4 4 39 118 79 255 41 136 75 245 77 243 2 -2 -2 -120 -8
-264 -7 -143 -9 -266 -6 -274 6 -18 118 -51 130 -39 5 5 71 114 149 242 77
129 138 227 135 219 -97 -324 -147 -504 -140 -510 8 -8 115 -42 118 -37 10 15
195 663 192 671 -5 12 -194 73 -201 65 -2 -2 -57 -92 -121 -199 -65 -107 -122
-199 -127 -205 -6 -6 -7 79 -2 236 l7 245 -90 27 c-86 26 -123 33 -123 22z"/>
<path d="M4640 12440 c-95 -38 -95 -38 -93 -71 2 -19 12 -119 23 -222 12 -104
20 -198 18 -209 -2 -15 -42 34 -143 176 -77 108 -142 196 -145 195 -20 -2
-195 -76 -194 -82 0 -5 56 -154 124 -333 138 -361 117 -332 207 -293 l42 18
-94 247 c-52 136 -93 249 -92 250 1 2 71 -96 155 -217 85 -120 157 -221 162
-224 6 -4 112 30 128 41 2 1 -11 120 -28 264 -17 144 -30 266 -28 271 2 5 45
-101 97 -236 55 -144 98 -244 105 -242 6 2 35 12 64 22 29 11 51 22 50 25 -2
4 -59 154 -128 333 -68 180 -127 327 -130 326 -3 -1 -48 -18 -100 -39z"/>
<path d="M8960 11909 c-85 -166 -156 -307 -158 -315 -3 -11 115 -81 123 -72 1
2 30 58 64 125 33 67 64 124 69 127 5 3 30 -8 55 -24 55 -35 60 -48 83 -240 9
-74 19 -138 22 -141 4 -4 38 -23 76 -44 l69 -38 -7 109 c-9 134 -21 198 -45
246 l-18 38 26 -8 c125 -35 240 46 249 177 5 75 -17 123 -75 165 -49 34 -352
196 -368 196 -5 0 -80 -136 -165 -301z m329 85 c109 -59 131 -79 131 -120 0
-44 -42 -94 -79 -94 -15 0 -74 22 -130 50 l-101 50 40 80 c22 44 43 80 47 80
3 0 45 -21 92 -46z"/>
<path d="M3479 11920 c-107 -32 -220 -128 -240 -203 -26 -99 33 -201 134 -228
49 -13 92 -8 232 26 110 27 144 25 164 -14 29 -54 -6 -118 -84 -157 -66 -32
-109 -28 -158 16 l-33 29 -57 -37 c-31 -20 -57 -40 -57 -44 0 -19 57 -70 106
-94 71 -35 142 -31 236 13 172 80 237 211 172 342 -55 109 -140 132 -322 87
-130 -33 -181 -32 -199 3 -16 33 5 73 57 107 58 39 109 42 147 10 l31 -26 61
36 c66 39 67 46 19 91 -49 46 -138 65 -209 43z"/>
<path d="M6230 11860 c-1025 -73 -1992 -431 -2806 -1037 -210 -157 -363 -291
-580 -507 -438 -438 -732 -849 -1004 -1401 -217 -441 -346 -817 -440 -1285
-75 -372 -103 -658 -103 -1050 0 -388 29 -687 103 -1050 179 -883 579 -1702
1166 -2390 137 -161 454 -475 609 -603 508 -422 1042 -729 1641 -942 1326
-472 2797 -391 4070 224 1058 512 1925 1373 2443 2426 256 520 420 1058 496
1634 60 453 62 922 5 1372 -195 1537 -1059 2914 -2360 3761 -645 420 -1369
694 -2115 802 -315 46 -829 67 -1125 46z m835 -205 c297 -29 559 -76 835 -150
1971 -528 3443 -2186 3729 -4200 31 -220 42 -352 48 -615 25 -1077 -289 -2125
-902 -3010 -666 -960 -1653 -1672 -2768 -1994 -737 -214 -1516 -258 -2274
-131 -1471 248 -2754 1126 -3527 2414 -401 669 -645 1438 -706 2230 -15 199
-12 619 5 821 74 846 349 1641 811 2348 864 1320 2292 2170 3849 2292 77 6
163 12 190 14 105 8 557 -4 710 -19z"/>
<path d="M6145 11534 c-1020 -92 -1954 -479 -2760 -1145 -136 -112 -500 -478
-617 -619 -263 -318 -454 -611 -633 -970 -630 -1258 -694 -2726 -178 -4045 74
-189 251 -546 361 -730 715 -1192 1909 -2039 3263 -2315 1838 -373 3718 306
4884 1765 619 775 974 1657 1070 2660 20 204 23 637 6 840 -107 1269 -673
2425 -1606 3278 -824 753 -1862 1200 -2984 1287 -183 14 -623 11 -806 -6z
m-564 -1748 c314 -46 613 -136 912 -274 l87 -41 0 -545 c0 -300 -2 -546 -4
-546 -2 0 -57 31 -123 68 -563 323 -1087 446 -1563 367 -187 -32 -424 -126
-573 -228 -37 -26 -72 -47 -77 -47 -6 0 -10 -4 -10 -8 0 -4 -21 -24 -47 -45
-188 -145 -366 -372 -459 -585 -181 -419 -119 -998 151 -1402 54 -81 71 -103
155 -194 179 -195 363 -318 596 -399 179 -63 243 -72 489 -72 192 0 234 3 330
23 179 38 393 115 591 213 194 96 226 115 517 303 l27 18 0 -560 0 -560 -47
-25 c-151 -79 -225 -115 -278 -139 -760 -341 -1501 -354 -2150 -38 -307 150
-557 344 -816 631 -89 98 -208 256 -265 349 -21 36 -45 75 -52 85 -15 25 -104
206 -130 265 -77 176 -144 464 -163 695 -26 329 22 725 126 1040 246 738 859
1332 1612 1560 179 54 343 84 608 109 83 8 464 -4 556 -18z m2704 -1560 c479
-65 886 -236 1245 -523 107 -85 296 -273 379 -377 305 -379 480 -818 531
-1325 13 -134 13 -425 -1 -549 -13 -119 -40 -260 -74 -378 -38 -130 -98 -284
-109 -277 -5 3 -6 1 -2 -5 9 -15 -91 -207 -175 -337 -190 -292 -498 -603 -782
-789 -191 -125 -391 -220 -596 -282 -543 -166 -1098 -131 -1691 106 -140 56
-340 151 -335 159 2 4 -4 7 -13 8 -9 1 -38 13 -64 28 l-48 27 0 559 c0 446 3
559 13 553 6 -5 59 -39 117 -78 384 -255 767 -415 1122 -467 91 -13 321 -13
417 1 235 33 416 102 606 231 354 240 584 599 656 1023 18 103 20 151 16 316
-5 206 -23 308 -79 450 -129 326 -398 620 -739 804 -427 231 -974 232 -1554 4
-168 -66 -451 -208 -535 -268 -16 -11 -31 -20 -34 -20 -3 0 -6 246 -6 548 l0
547 53 24 c367 167 723 268 1057 301 120 12 494 4 625 -14z m-3008 -357 c140
-67 221 -220 210 -398 -6 -102 -30 -172 -85 -245 -43 -57 -134 -122 -153 -110
-7 4 -9 3 -6 -3 4 -6 -18 -16 -54 -23 -151 -32 -307 57 -380 217 -42 93 -54
182 -35 273 55 261 284 393 503 289z m2789 -1576 c157 -53 264 -215 264 -398
0 -114 -40 -213 -118 -297 -42 -44 -122 -98 -122 -82 0 4 -7 0 -17 -7 -11 -10
-45 -14 -107 -14 -77 0 -99 4 -141 25 -55 27 -131 99 -155 146 -8 16 -17 31
-20 34 -12 11 -41 117 -46 170 -12 113 43 256 129 341 92 90 218 121 333 82z"/>
<path d="M9673 11508 l-303 -222 58 -38 c31 -21 62 -38 68 -38 6 0 40 22 76
49 l65 49 120 -78 121 -78 -17 -83 -18 -84 66 -42 c41 -27 67 -38 69 -30 19
92 132 716 132 728 0 16 -105 90 -126 89 -5 -1 -145 -101 -311 -222z m261 -83
c-14 -66 -27 -126 -29 -133 -3 -8 -31 5 -82 39 -43 28 -77 54 -75 57 3 10 204
163 208 159 1 -1 -8 -56 -22 -122z"/>
<path d="M2735 11419 c-27 -22 -54 -44 -58 -48 -6 -6 207 -717 218 -730 6 -6
114 83 114 95 1 6 -10 44 -24 84 -14 41 -22 77 -18 80 5 4 55 44 112 90 l104
84 41 -24 c23 -13 57 -33 77 -44 l36 -20 56 45 c31 24 56 47 56 50 1 4 -655
380 -662 379 -1 -1 -24 -19 -52 -41z m247 -226 c43 -25 80 -48 82 -52 6 -8
-131 -117 -142 -113 -4 1 -26 59 -49 128 l-42 125 37 -21 c20 -12 72 -42 114
-67z"/>
<path d="M10570 11068 c-203 -234 -248 -278 -285 -278 -40 0 -85 42 -85 79 0
14 9 41 20 59 11 18 20 34 20 36 0 2 -25 20 -56 40 -63 42 -63 42 -104 -40
-40 -81 -16 -171 67 -243 84 -75 172 -86 260 -35 40 23 383 402 383 423 0 10
-89 91 -99 91 -4 0 -58 -59 -121 -132z"/>
<path d="M2235 10986 l-200 -194 42 -43 43 -44 73 73 74 73 206 -213 206 -213
51 51 51 50 -157 165 c-87 90 -178 185 -203 212 l-45 47 74 75 74 75 -39 40
c-21 22 -42 40 -45 40 -3 0 -95 -88 -205 -194z"/>
<path d="M10750 10675 c-184 -79 -339 -146 -345 -148 -11 -5 84 -107 100 -107
5 0 43 15 84 32 l73 33 98 -105 97 -104 -35 -78 -36 -79 55 -55 54 -54 144
327 c80 181 149 338 155 351 8 20 3 29 -44 77 -30 30 -57 55 -60 54 -3 -1
-156 -66 -340 -144z m256 -77 c-13 -29 -39 -86 -57 -125 -18 -40 -36 -73 -40
-73 -4 0 -35 31 -69 70 -61 68 -61 70 -38 79 12 5 68 30 123 55 55 25 101 45
102 45 2 1 -8 -23 -21 -51z"/>
<path d="M1885 10618 c-44 -49 -45 -52 -28 -68 15 -14 445 -387 504 -437 14
-12 22 -7 63 41 l46 55 -265 230 c-145 127 -266 231 -269 231 -2 0 -25 -23
-51 -52z"/>
<path d="M1677 10325 c-86 -30 -183 -151 -206 -257 -28 -123 77 -242 200 -225
54 7 112 39 194 106 39 32 80 63 92 69 90 48 150 -57 87 -153 -47 -73 -104
-95 -185 -73 -25 7 -30 3 -63 -53 l-36 -60 38 -16 c20 -9 63 -18 94 -21 48 -4
67 0 113 22 64 32 130 103 171 185 41 79 41 169 1 229 -59 90 -167 125 -258
85 -24 -11 -82 -50 -128 -87 -109 -87 -137 -101 -167 -87 -51 23 -36 106 31
171 31 30 38 32 85 28 l50 -5 40 56 c37 51 39 57 23 69 -21 15 -80 32 -113 32
-14 -1 -42 -7 -63 -15z"/>
<path d="M11380 9915 c-195 -41 -356 -74 -358 -75 -1 0 16 -28 39 -62 23 -35
43 -64 43 -65 1 -1 39 8 85 18 46 11 84 19 85 17 116 -180 146 -228 146 -240
0 -7 -21 -40 -45 -72 -25 -33 -45 -63 -45 -68 0 -5 18 -36 41 -69 l40 -60 206
293 c113 161 212 303 220 315 13 20 11 27 -27 82 -24 37 -48 61 -58 60 -9 0
-177 -34 -372 -74z m209 -185 c-44 -60 -83 -110 -85 -110 -7 0 -105 153 -101
157 4 3 242 61 259 62 5 1 -28 -48 -73 -109z"/>
<path d="M1264 9721 c-17 -10 -47 -38 -66 -62 -50 -63 -211 -350 -201 -359 24
-22 599 -340 607 -336 13 5 73 113 66 119 -3 2 -59 34 -125 72 -66 37 -121 69
-123 70 -11 10 54 89 83 101 18 7 101 19 185 26 l151 13 41 74 41 74 -135 -7
c-120 -6 -181 -16 -239 -40 -14 -6 -15 -1 -6 41 13 65 3 111 -35 157 -59 71
-176 99 -244 57z m141 -157 c23 -22 27 -31 22 -64 -3 -22 -28 -79 -56 -129
l-51 -89 -75 41 c-41 23 -75 46 -75 51 0 14 90 168 113 194 29 31 85 30 122
-4z"/>
<path d="M11753 9328 c-167 -89 -303 -165 -303 -170 0 -8 215 -423 225 -436 4
-5 105 47 105 54 0 3 -36 73 -80 156 -44 83 -77 154 -75 159 3 4 114 64 248
134 133 70 246 131 250 135 9 8 -49 131 -61 129 -4 -1 -143 -73 -309 -161z"/>
<path d="M786 8843 c-53 -135 -96 -246 -94 -248 20 -15 653 -254 659 -248 4 4
49 114 99 243 51 129 94 238 97 243 4 7 -79 47 -100 47 -7 0 -44 -81 -82 -180
-39 -99 -73 -180 -77 -180 -21 0 -168 64 -168 73 0 7 27 81 61 166 33 85 56
157 52 161 -14 12 -95 41 -101 36 -2 -3 -33 -76 -67 -163 -42 -105 -68 -157
-77 -155 -45 11 -128 46 -128 55 0 6 30 87 66 179 37 93 64 171 61 174 -2 3
-27 14 -55 24 l-49 19 -97 -246z"/>
<path d="M12025 8752 c-170 -69 -312 -127 -314 -128 -5 -4 40 -123 49 -129 6
-4 646 248 655 257 2 2 -8 31 -22 66 -17 42 -30 62 -42 61 -9 -1 -155 -58
-326 -127z"/>
<path d="M626 8405 c-9 -30 -19 -61 -22 -68 -3 -10 68 -65 223 -173 l228 -159
-165 -7 c-91 -4 -216 -10 -278 -14 l-112 -6 -21 -70 c-12 -38 -19 -71 -17 -74
3 -2 158 5 344 16 186 11 353 20 371 20 30 0 32 3 53 71 11 39 20 75 18 80 -4
11 -588 439 -599 439 -4 0 -15 -25 -23 -55z"/>
<path d="M12225 8173 c-176 -42 -321 -76 -322 -77 -8 -5 34 -136 43 -136 7 0
70 14 139 30 69 17 132 30 140 30 9 0 23 -43 44 -132 17 -72 29 -133 27 -135
-2 -2 -68 -19 -146 -38 -77 -18 -143 -35 -146 -38 -4 -4 23 -128 30 -135 4 -4
676 154 682 161 6 6 -15 108 -26 126 -4 8 -45 2 -135 -19 -70 -17 -131 -27
-135 -23 -14 16 -63 254 -54 262 5 5 63 21 129 36 66 15 123 29 126 31 4 2 -1
33 -9 69 -15 60 -18 65 -41 64 -14 -1 -170 -35 -346 -76z"/>
<path d="M431 7608 c-6 -39 -10 -72 -9 -73 2 -1 158 -28 347 -60 271 -45 345
-55 351 -45 10 15 24 120 17 126 -2 3 -150 29 -328 59 -178 31 -333 57 -345
60 -19 4 -22 -2 -33 -67z"/>
<path d="M12043 7444 c3 -10 8 -45 12 -76 l6 -57 77 -17 c42 -9 81 -20 85 -24
4 -4 17 -67 27 -141 22 -154 28 -139 -73 -190 l-59 -30 7 -62 c3 -34 9 -69 11
-79 4 -13 69 21 332 171 l327 187 -3 70 c-1 38 -8 74 -15 80 -7 7 -167 49
-357 94 -190 46 -353 85 -364 88 -14 4 -17 1 -13 -14z m487 -237 l95 -23 -70
-38 c-38 -22 -93 -52 -121 -68 l-52 -28 -6 42 c-3 24 -9 67 -12 97 l-7 53 39
-6 c21 -4 82 -17 134 -29z"/>
<path d="M375 7259 c-4 -33 -5 -62 -3 -65 3 -2 107 -12 231 -21 125 -10 227
-20 227 -23 0 -3 -108 -60 -240 -128 -228 -117 -240 -124 -245 -155 -4 -18 -5
-51 -3 -72 l3 -40 345 -26 c190 -14 348 -24 353 -22 4 2 7 33 7 67 l0 63 -177
13 c-98 7 -200 16 -228 19 l-50 6 230 119 c127 65 235 124 241 130 13 13 28
146 17 146 -4 0 -150 11 -323 25 -422 33 -377 37 -385 -36z"/>
<path d="M12238 6710 c-85 -26 -132 -102 -132 -215 1 -110 53 -188 142 -216
21 -6 148 -13 304 -16 l266 -5 7 66 c4 37 5 69 3 72 -3 2 -126 8 -274 12 -315
8 -324 11 -324 87 0 35 5 47 26 64 15 12 36 21 48 21 42 0 49 13 41 79 l-7 61
-36 -1 c-21 0 -49 -4 -64 -9z"/>
<path d="M340 6465 l0 -74 253 5 c231 5 255 4 287 -13 45 -23 60 -54 60 -125
0 -46 -5 -62 -26 -87 -36 -43 -77 -51 -270 -51 -94 0 -199 -3 -233 -6 l-61 -7
0 -68 0 -69 163 0 c89 0 216 5 281 10 152 11 196 34 240 124 26 51 30 70 30
145 1 47 -5 108 -13 135 -19 63 -81 130 -136 145 -24 7 -144 11 -307 11 l-268
0 0 -75z"/>
<path d="M12098 6070 c-4 -108 -50 -91 347 -121 193 -15 351 -26 352 -25 1 1
6 35 9 74 l7 72 -29 0 c-16 0 -173 11 -349 25 -176 14 -323 25 -327 25 -5 0
-9 -22 -10 -50z"/>
<path d="M11710 4235 c-75 -22 -130 -56 -183 -115 -61 -68 -89 -143 -89 -240
0 -109 29 -178 106 -256 79 -79 148 -107 261 -108 101 0 176 32 252 106 76 75
107 150 108 258 0 74 -4 93 -31 150 -77 163 -259 251 -424 205z"/>
<path d="M1258 4147 c-160 -60 -250 -186 -251 -352 -1 -70 3 -89 30 -147 39
-82 100 -146 179 -184 52 -25 70 -28 154 -28 84 0 102 3 154 28 79 38 140 102
179 184 27 58 31 77 30 147 -1 145 -68 258 -195 325 -56 30 -73 34 -153 37
-59 2 -103 -1 -127 -10z"/>
<path d="M10307 2496 c-20 -7 -54 -26 -75 -42 -52 -40 -292 -246 -292 -251 0
-8 454 -533 460 -533 4 0 29 20 58 44 l51 44 -95 110 c-51 61 -94 113 -94 116
0 16 86 66 114 66 17 0 97 -18 176 -39 l145 -39 44 36 c24 21 53 45 65 54 11
9 19 19 16 21 -3 3 -59 22 -125 42 -81 25 -141 38 -185 39 l-65 1 27 50 c17
31 28 65 28 90 -1 128 -139 233 -253 191z m74 -146 c26 -15 52 -68 45 -95 -3
-13 -45 -60 -93 -105 l-88 -81 -57 63 c-32 35 -57 68 -57 73 0 10 109 105 158
137 29 20 63 23 92 8z"/>
<path d="M2728 2457 c-99 -37 -196 -123 -250 -223 -52 -96 -53 -223 -3 -310
32 -54 106 -121 163 -147 69 -30 152 -28 225 5 31 15 57 30 57 34 0 3 -16 32
-35 64 l-35 57 -47 -24 c-58 -29 -115 -27 -162 7 -38 27 -71 88 -71 132 0 111
165 288 268 288 104 0 189 -103 163 -197 -6 -20 -9 -38 -8 -39 1 -1 30 -15 63
-32 l62 -31 13 32 c8 18 14 61 14 97 0 53 -6 75 -30 119 -34 61 -97 120 -163
153 -57 28 -169 35 -224 15z"/>
<path d="M9660 2015 c-113 -80 -205 -152 -205 -158 0 -7 90 -140 199 -295 132
-187 203 -279 210 -274 6 5 102 73 214 152 111 78 205 147 208 152 5 8 -40 83
-56 93 -4 2 -79 -47 -167 -110 l-161 -113 -56 78 -55 79 137 97 c75 53 141
100 146 104 7 7 -50 100 -62 100 -2 0 -67 -45 -145 -100 -77 -54 -143 -97
-147 -95 -3 2 -25 30 -48 63 l-41 59 154 109 c85 60 155 112 155 115 0 10 -60
89 -68 89 -4 0 -99 -65 -212 -145z"/>
<path d="M3215 2042 c-78 -37 -157 -123 -203 -221 -31 -65 -36 -84 -36 -150 1
-62 6 -87 28 -133 32 -68 103 -135 184 -175 50 -24 69 -28 147 -28 81 0 95 3
143 30 70 38 139 115 182 201 33 64 35 76 35 164 0 80 -4 102 -23 138 -35 66
-100 124 -181 165 -64 32 -83 37 -145 37 -57 0 -83 -6 -131 -28z m241 -129
c61 -31 97 -83 102 -148 4 -49 0 -65 -32 -129 -55 -113 -136 -176 -226 -176
-40 0 -111 41 -144 83 -28 35 -31 46 -31 110 0 60 5 81 29 123 78 143 192 194
302 137z"/>
<path d="M3752 1577 c-196 -380 -212 -414 -199 -425 13 -11 94 -52 101 -52 3
0 58 104 122 231 65 127 120 227 121 222 3 -7 -97 -454 -112 -503 -4 -11 14
-25 59 -47 l64 -32 158 181 c88 100 172 195 187 212 18 20 -14 -52 -92 -205
-67 -130 -121 -241 -121 -248 0 -12 106 -68 113 -60 8 8 317 616 317 622 0 7
-174 97 -187 97 -5 0 -80 -81 -167 -180 -88 -99 -161 -178 -162 -177 -2 1 19
105 47 230 27 126 49 234 49 240 0 7 -42 34 -94 59 l-95 47 -109 -212z"/>
<path d="M9205 1737 c-38 -18 -125 -61 -193 -95 l-123 -63 157 -307 c86 -169
160 -311 165 -316 10 -11 339 159 390 202 64 55 85 114 67 195 -18 87 -92 147
-181 147 l-28 0 17 32 c22 43 15 125 -16 168 -28 39 -91 70 -145 70 -24 0 -67
-13 -110 -33z m139 -128 c45 -53 29 -92 -57 -141 -77 -45 -123 -68 -135 -68
-9 0 -78 137 -71 144 15 15 197 96 215 96 13 0 33 -13 48 -31z m137 -229 c22
-12 49 -60 49 -88 0 -35 -37 -67 -140 -121 -56 -29 -103 -51 -105 -50 -1 2
-21 41 -44 87 l-41 82 101 50 c102 50 143 59 180 40z"/>
<path d="M8805 1541 l-70 -27 -24 -157 c-14 -86 -27 -157 -31 -157 -4 0 -53
37 -111 81 -158 123 -137 115 -219 83 -38 -15 -70 -31 -70 -35 0 -4 84 -69
188 -145 103 -75 190 -141 193 -146 3 -5 28 -68 55 -139 27 -71 54 -129 60
-129 10 0 113 39 123 47 2 1 -20 64 -49 140 l-54 137 44 220 c24 122 45 229
48 239 6 22 1 21 -83 -12z"/>
<path d="M4406 1143 c-60 -181 -109 -332 -110 -337 0 -4 29 -19 66 -31 l67
-23 41 124 c23 68 44 124 47 124 3 0 53 -14 110 -31 80 -24 118 -30 159 -27
112 9 188 102 189 230 0 58 -4 72 -30 109 -37 53 -78 73 -275 138 -85 28 -155
51 -156 51 0 0 -49 -147 -108 -327z m304 136 c84 -32 120 -64 120 -106 0 -39
-27 -79 -61 -94 -29 -11 -43 -10 -118 9 -47 12 -89 26 -93 30 -10 10 50 192
63 192 5 0 45 -14 89 -31z"/>
<path d="M7967 1266 c-102 -42 -158 -99 -192 -195 -41 -118 5 -315 100 -419
63 -71 174 -108 272 -92 141 23 239 109 258 225 3 22 8 50 11 63 4 21 2 22
-70 22 l-73 0 -7 -52 c-17 -123 -162 -180 -257 -101 -68 57 -123 235 -100 320
17 62 54 100 114 118 64 19 107 9 153 -36 l32 -31 61 32 c34 18 61 36 61 39 0
4 -14 24 -32 45 -70 85 -211 111 -331 62z"/>
<path d="M5071 1243 c-49 -193 -95 -428 -95 -494 -1 -67 2 -80 27 -118 37 -55
103 -96 188 -115 157 -36 259 -4 308 98 19 38 131 493 131 530 0 9 -25 20 -67
29 -38 8 -69 15 -69 14 -1 -1 -23 -96 -48 -212 -57 -257 -70 -299 -103 -325
-50 -39 -158 -20 -201 35 -32 41 -28 88 28 337 28 122 48 223 46 225 -4 4
-114 32 -128 33 -4 0 -12 -17 -17 -37z"/>
<path d="M5666 1119 c-3 -17 -6 -44 -6 -59 0 -26 2 -27 68 -34 37 -4 83 -9
103 -12 l35 -6 -37 -291 c-21 -161 -36 -293 -35 -294 1 -1 34 -5 72 -9 l70 -6
36 287 c21 158 39 289 41 291 2 2 48 -2 103 -10 54 -7 100 -13 101 -12 1 1 5
27 9 58 6 54 5 57 -17 62 -28 7 -499 66 -521 66 -9 0 -18 -13 -22 -31z"/>
<path d="M6975 1098 c-66 -5 -121 -10 -121 -11 -1 -1 10 -161 24 -354 l27
-353 26 0 c14 0 48 3 74 7 l47 6 -6 56 c-3 31 -8 98 -12 149 l-7 92 47 0 c26
0 60 -7 76 -15 16 -8 74 -70 128 -138 l99 -122 76 5 c41 3 78 8 81 11 17 17
-204 279 -236 279 -22 0 -4 19 23 25 39 9 98 61 115 102 41 97 -9 228 -99 262
-33 13 -191 12 -362 -1z m304 -132 c17 -18 22 -33 19 -66 -5 -64 -31 -79 -161
-92 -59 -6 -110 -9 -113 -6 -2 3 -8 44 -11 91 l-6 86 44 4 c24 2 80 4 125 5
73 2 83 0 103 -22z"/>
<path d="M6246 740 c-4 -194 -5 -354 -3 -357 3 -2 124 -7 271 -10 l266 -6 0
61 0 62 -172 0 c-95 0 -183 3 -195 6 -22 6 -23 11 -23 101 l0 94 180 -7 180
-7 0 60 0 60 -177 7 c-98 4 -179 9 -181 10 -2 2 0 37 4 77 l6 74 189 -4 189
-3 0 61 0 61 -107 0 c-60 0 -178 3 -264 7 l-156 6 -7 -353z"/>
</g>
</svg>
