<?xml version="1.0" encoding="UTF-8" standalone="no"?>
<svg
   xmlns:dc="http://purl.org/dc/elements/1.1/"
   xmlns:cc="http://creativecommons.org/ns#"
   xmlns:rdf="http://www.w3.org/1999/02/22-rdf-syntax-ns#"
   xmlns:svg="http://www.w3.org/2000/svg"
   xmlns="http://www.w3.org/2000/svg"
   xmlns:xlink="http://www.w3.org/1999/xlink"
   xmlns:sodipodi="http://sodipodi.sourceforge.net/DTD/sodipodi-0.dtd"
   xmlns:inkscape="http://www.inkscape.org/namespaces/inkscape"
   id="53917d2c-59b7-443c-9dc6-ca37ebed1a74"
   data-name="Layer 1"
   width="965.64"
   height="800.81"
   viewBox="0 0 965.64 800.81"
   version="1.1"
   sodipodi:docname="event.svg"
   inkscape:version="0.92.3 (2405546, 2018-03-11)">
  <metadata
     id="metadata243">
    <rdf:RDF>
      <cc:Work
         rdf:about="">
        <dc:format>image/svg+xml</dc:format>
        <dc:type
           rdf:resource="http://purl.org/dc/dcmitype/StillImage" />
      </cc:Work>
    </rdf:RDF>
  </metadata>
  <sodipodi:namedview
     pagecolor="#ffffff"
     bordercolor="#666666"
     borderopacity="1"
     objecttolerance="10"
     gridtolerance="10"
     guidetolerance="10"
     inkscape:pageopacity="0"
     inkscape:pageshadow="2"
     inkscape:window-width="1366"
     inkscape:window-height="705"
     id="namedview241"
     showgrid="false"
     inkscape:snap-nodes="false"
     inkscape:zoom="0.41446339"
     inkscape:cx="515.52842"
     inkscape:cy="654.22076"
     inkscape:window-x="0"
     inkscape:window-y="30"
     inkscape:window-maximized="1"
     inkscape:current-layer="53917d2c-59b7-443c-9dc6-ca37ebed1a74" />
  <defs
     id="defs10">
    <linearGradient
       id="5075b4d4-ce6f-410a-b63e-15cf2dd063e7"
       x1="478.38"
       y1="695.72"
       x2="478.38"
       y2="33.2"
       gradientUnits="userSpaceOnUse">
      <stop
         offset="0"
         stop-color="gray"
         stop-opacity="0.25"
         id="stop2" />
      <stop
         offset="0.54"
         stop-color="gray"
         stop-opacity="0.12"
         id="stop4" />
      <stop
         offset="1"
         stop-color="gray"
         stop-opacity="0.1"
         id="stop6" />
    </linearGradient>
    <linearGradient
       id="dee71953-6e04-4c93-a054-139b0acb5af5"
       x1="1834.21"
       y1="806.87"
       x2="1834.21"
       y2="194.98"
       gradientTransform="matrix(-1,0,0,1,2648.82,-18.880601)"
       xlink:href="#5075b4d4-ce6f-410a-b63e-15cf2dd063e7" />
  </defs>
  <title
     id="title12">events</title>
  <path
     d="M781.67,356.47s101-84.63,123.46-127.3,51.05-79.44,51.05-79.44"
     transform="translate(-117.18 -49.59)"
     fill="none"
     stroke="#535461"
     stroke-miterlimit="10"
     stroke-width="2"
     id="path16" />
  <path
     d="M901,176.08l19.67,25.76S885.85,205.14,901,176.08Z"
     transform="translate(-117.18 -49.59)"
     fill="#ffc107"
     id="path24" />
  <path
     d="M940.81,170.95s34,1.62,38,4.87-5.07,22.3-18,19.19S940.81,170.95,940.81,170.95Z"
     transform="translate(-117.18 -49.59)"
     fill="#ffc107"
     id="path26" />
  <path
     d="M927.22,140.56s13.89,25.31,13.37,30.13-21.17,10.23-25.34-8S927.22,140.56,927.22,140.56Z"
     transform="translate(-117.18 -49.59)"
     fill="#ffc107"
     id="path28" />
  <circle
     cx="963.75"
     cy="154.12"
     r="9.49"
     transform="matrix(0.3, -0.95, 0.95, 0.3, 408.68, 976.78)"
     fill="#ffd037"
     id="circle30" />
  <circle
     cx="948.9"
     cy="144.43"
     r="9.49"
     transform="matrix(0.3, -0.95, 0.95, 0.3, 407.54, 955.85)"
     fill="#ffd037"
     id="circle32" />
  <path
     d="M466.64,688.22S482.85,640,380.09,581.87c0,0-104.34-30.43-93.67-134.93,0,0-120.28,88.12-38.89,200.37s151.64,87.75,151.64,87.75Z"
     transform="translate(-117.18 -49.59)"
     fill="#ffc107"
     id="path34" />
  <path
     d="M435.31,710s-50.14-54.19-98.2-75.14A95.71,95.71,0,0,1,311,617.47c-30.64-28-44-70.25-36.1-111l11.55-59.53"
     transform="translate(-117.18 -49.59)"
     fill="none"
     stroke="#535461"
     stroke-miterlimit="10"
     stroke-width="2"
     id="path36" />
  <rect
     x="199.72"
     y="40.91"
     width="557.32"
     height="647.09"
     fill="#f7f7fd"
     id="rect40" />
  <rect
     x="233.38"
     y="113.85"
     width="140.89"
     height="11.22"
     fill="#e2e2ec"
     id="rect42" />
  <rect
     x="233.38"
     y="141.28"
     width="240.63"
     height="11.22"
     fill="#e2e2ec"
     id="rect44" />
  <rect
     x="630.36"
     y="103.13"
     width="99.99"
     height="86.28"
     fill="#fff"
     id="rect46" />
  <path
     d="M847,153.22V238.5H748V153.22h99m1-1H747V239.5H848V152.22Z"
     transform="translate(-117.18 -49.59)"
     fill="#e2e2ec"
     id="path48" />
  <rect
     x="529.37"
     y="103.13"
     width="99.99"
     height="86.28"
     fill="#fff"
     id="rect50" />
  <path
     d="M746,153.22V238.5h-99V153.22h99m1-1h-101V239.5H747V152.22Z"
     transform="translate(-117.18 -49.59)"
     fill="#e2e2ec"
     id="path52" />
  <rect
     x="630.36"
     y="190.41"
     width="99.99"
     height="86.28"
     fill="#fff"
     id="rect54" />
  <path
     d="M847,240.5v85.28H748V240.5h99m1-1H747v87.28H848V239.5Z"
     transform="translate(-117.18 -49.59)"
     fill="#e2e2ec"
     id="path56" />
  <rect
     x="529.37"
     y="190.41"
     width="99.99"
     height="86.28"
     fill="#fff"
     id="rect58" />
  <path
     d="M746,240.5v85.28h-99V240.5h99m1-1h-101v87.28H747V239.5Z"
     transform="translate(-117.18 -49.59)"
     fill="#e2e2ec"
     id="path60" />
  <rect
     x="428.38"
     y="190.41"
     width="99.99"
     height="86.28"
     fill="#fff"
     id="rect62" />
  <path
     d="M645.05,240.5v85.28h-99V240.5h99m1-1h-101v87.28h101V239.5Z"
     transform="translate(-117.18 -49.59)"
     fill="#e2e2ec"
     id="path64" />
  <rect
     x="327.39"
     y="190.41"
     width="99.99"
     height="86.28"
     fill="#fff"
     id="rect66" />
  <path
     d="M544.06,240.5v85.28h-99V240.5h99m1-1h-101v87.28h101V239.5Z"
     transform="translate(-117.18 -49.59)"
     fill="#e2e2ec"
     id="path68" />
  <rect
     x="226.4"
     y="190.41"
     width="99.99"
     height="86.28"
     fill="#fff"
     id="rect70" />
  <path
     d="M443.07,240.5v85.28h-99V240.5h99m1-1h-101v87.28h101V239.5Z"
     transform="translate(-117.18 -49.59)"
     fill="#e2e2ec"
     id="path72" />
  <rect
     x="630.36"
     y="277.68"
     width="99.99"
     height="86.28"
     fill="#fff"
     id="rect74" />
  <path
     d="M847,327.78v85.28H748V327.78h99m1-1H747v87.28H848V326.78Z"
     transform="translate(-117.18 -49.59)"
     fill="#e2e2ec"
     id="path76" />
  <rect
     x="529.37"
     y="277.68"
     width="99.99"
     height="86.28"
     fill="#fff"
     id="rect78" />
  <path
     d="M746,327.78v85.28h-99V327.78h99m1-1h-101v87.28H747V326.78Z"
     transform="translate(-117.18 -49.59)"
     fill="#e2e2ec"
     id="path80" />
  <rect
     x="428.38"
     y="277.68"
     width="99.99"
     height="86.28"
     fill="#fff"
     id="rect82" />
  <path
     d="M645.05,327.78v85.28h-99V327.78h99m1-1h-101v87.28h101V326.78Z"
     transform="translate(-117.18 -49.59)"
     fill="#e2e2ec"
     id="path84" />
  <rect
     x="327.39"
     y="277.68"
     width="99.99"
     height="86.28"
     fill="#fff"
     id="rect86" />
  <path
     d="M544.06,327.78v85.28h-99V327.78h99m1-1h-101v87.28h101V326.78Z"
     transform="translate(-117.18 -49.59)"
     fill="#e2e2ec"
     id="path88" />
  <rect
     x="226.4"
     y="277.68"
     width="99.99"
     height="86.28"
     fill="#fff"
     id="rect90" />
  <path
     d="M443.07,327.78v85.28h-99V327.78h99m1-1h-101v87.28h101V326.78Z"
     transform="translate(-117.18 -49.59)"
     fill="#e2e2ec"
     id="path92" />
  <rect
     x="630.36"
     y="364.96"
     width="99.99"
     height="86.28"
     fill="#fff"
     id="rect94" />
  <path
     d="M847,415.05v85.28H748V415.05h99m1-1H747v87.28H848V414.05Z"
     transform="translate(-117.18 -49.59)"
     fill="#e2e2ec"
     id="path96" />
  <rect
     x="529.37"
     y="364.96"
     width="99.99"
     height="86.28"
     fill="#fff"
     id="rect98" />
  <path
     d="M746,415.05v85.28h-99V415.05h99m1-1h-101v87.28H747V414.05Z"
     transform="translate(-117.18 -49.59)"
     fill="#e2e2ec"
     id="path100" />
  <rect
     x="428.38"
     y="364.96"
     width="99.99"
     height="86.28"
     fill="#fff"
     id="rect102" />
  <path
     d="M645.05,415.05v85.28h-99V415.05h99m1-1h-101v87.28h101V414.05Z"
     transform="translate(-117.18 -49.59)"
     fill="#e2e2ec"
     id="path104" />
  <rect
     x="327.39"
     y="364.96"
     width="99.99"
     height="86.28"
     fill="#fff"
     id="rect106" />
  <path
     d="M544.06,415.05v85.28h-99V415.05h99m1-1h-101v87.28h101V414.05Z"
     transform="translate(-117.18 -49.59)"
     fill="#e2e2ec"
     id="path108" />
  <rect
     x="226.4"
     y="364.96"
     width="99.99"
     height="86.28"
     fill="#fff"
     id="rect110" />
  <path
     d="M443.07,415.05v85.28h-99V415.05h99m1-1h-101v87.28h101V414.05Z"
     transform="translate(-117.18 -49.59)"
     fill="#e2e2ec"
     id="path112" />
  <rect
     x="630.36"
     y="452.23"
     width="99.99"
     height="86.28"
     fill="#fff"
     id="rect114" />
  <path
     d="M847,502.33V587.6H748V502.33h99m1-1H747V588.6H848V501.33Z"
     transform="translate(-117.18 -49.59)"
     fill="#e2e2ec"
     id="path116" />
  <rect
     x="529.37"
     y="452.23"
     width="99.99"
     height="86.28"
     fill="#fff"
     id="rect118" />
  <path
     d="M746,502.33V587.6h-99V502.33h99m1-1h-101V588.6H747V501.33Z"
     transform="translate(-117.18 -49.59)"
     fill="#e2e2ec"
     id="path120" />
  <rect
     x="428.38"
     y="452.23"
     width="99.99"
     height="86.28"
     fill="#fff"
     id="rect122" />
  <path
     d="M645.05,502.33V587.6h-99V502.33h99m1-1h-101V588.6h101V501.33Z"
     transform="translate(-117.18 -49.59)"
     fill="#e2e2ec"
     id="path124" />
  <rect
     x="327.39"
     y="452.23"
     width="99.99"
     height="86.28"
     fill="#fff"
     id="rect126" />
  <path
     d="M544.06,502.33V587.6h-99V502.33h99m1-1h-101V588.6h101V501.33Z"
     transform="translate(-117.18 -49.59)"
     fill="#e2e2ec"
     id="path128" />
  <rect
     x="226.4"
     y="452.23"
     width="99.99"
     height="86.28"
     fill="#fff"
     id="rect130" />
  <path
     d="M443.07,502.33V587.6h-99V502.33h99m1-1h-101V588.6h101V501.33Z"
     transform="translate(-117.18 -49.59)"
     fill="#e2e2ec"
     id="path132" />
  <rect
     x="630.36"
     y="539.51"
     width="99.99"
     height="86.28"
     fill="#fff"
     id="rect134" />
  <path
     d="M847,589.6v85.28H748V589.6h99m1-1H747v87.28H848V588.6Z"
     transform="translate(-117.18 -49.59)"
     fill="#e2e2ec"
     id="path136" />
  <rect
     x="529.37"
     y="539.51"
     width="99.99"
     height="86.28"
     fill="#fff"
     id="rect138" />
  <path
     d="M746,589.6v85.28h-99V589.6h99m1-1h-101v87.28H747V588.6Z"
     transform="translate(-117.18 -49.59)"
     fill="#e2e2ec"
     id="path140" />
  <rect
     x="428.38"
     y="539.51"
     width="99.99"
     height="86.28"
     fill="#fff"
     id="rect142" />
  <path
     d="M645.05,589.6v85.28h-99V589.6h99m1-1h-101v87.28h101V588.6Z"
     transform="translate(-117.18 -49.59)"
     fill="#e2e2ec"
     id="path144" />
  <rect
     x="327.39"
     y="539.51"
     width="99.99"
     height="86.28"
     fill="#fff"
     id="rect146" />
  <path
     d="M544.06,589.6v85.28h-99V589.6h99m1-1h-101v87.28h101V588.6Z"
     transform="translate(-117.18 -49.59)"
     fill="#e2e2ec"
     id="path148" />
  <rect
     x="226.4"
     y="539.51"
     width="99.99"
     height="86.28"
     fill="#fff"
     id="rect150" />
  <path
     d="M443.07,589.6v85.28h-99V589.6h99m1-1h-101v87.28h101V588.6Z"
     transform="translate(-117.18 -49.59)"
     fill="#e2e2ec"
     id="path152" />
  <circle
     cx="239.59"
     cy="203.53"
     r="5.7"
     fill="#fc6681"
     id="circle156" />
  <circle
     cx="253.83"
     cy="203.53"
     r="5.7"
     fill="#ffd037"
     id="circle158" />
  <circle
     cx="440.87"
     cy="288.03"
     r="5.7"
     fill="#ffc107"
     id="circle160" />
  <circle
     cx="455.12"
     cy="288.03"
     r="5.7"
     fill="#ffc107"
     id="circle162" />
  <circle
     cx="645"
     cy="203.53"
     r="5.7"
     fill="#ffc107"
     id="circle170" />
  <circle
     cx="659.24"
     cy="203.53"
     r="5.7"
     fill="#ffc107"
     id="circle172" />
  <circle
     cx="673.49"
     cy="203.53"
     r="5.7"
     fill="#ffc107"
     id="circle174" />
  <circle
     cx="687.73"
     cy="203.53"
     r="5.7"
     fill="#ffc107"
     id="circle176" />
  <circle
     cx="645"
     cy="380.12"
     r="5.7"
     fill="#ffc107"
     id="circle178" />
  <circle
     cx="659.24"
     cy="380.12"
     r="5.7"
     fill="#ffc107"
     id="circle180" />
  <circle
     cx="673.49"
     cy="380.12"
     r="5.7"
     fill="#ffc107"
     id="circle182" />
  <circle
     cx="687.73"
     cy="380.12"
     r="5.7"
     fill="#ffc107"
     id="circle184" />
  <circle
     cx="340.23"
     cy="288.03"
     r="5.7"
     fill="#ffd037"
     id="circle186" />
  <circle
     cx="239.59"
     cy="374.43"
     r="5.7"
     fill="#fc6681"
     id="circle188" />
  <path
     style="fill:#ffc107"
     inkscape:connector-curvature="0"
     d="m 764.93127,136.54746 25.14,37.65 c 0,0 -49.15,3.55 -25.14,-37.65 z"
     id="path20" />
  <g
     id="g1175">
    <path
       id="path18"
       d="m 825.72,226.2394 -43.69,-9.85 c 0,0 10.31,46.08 43.69,9.85 z"
       inkscape:connector-curvature="0"
       style="fill:#ffc107" />
    <path
       id="path22"
       d="m 842.91,190.8494 -39.93,-7 c 0,0 25.08,38.15 39.93,7 z"
       inkscape:connector-curvature="0"
       style="fill:#ffc107" />
    <circle
       id="circle164"
       r="5.6999998"
       cy="482.0394"
       cx="745.64001"
       style="fill:#ffc107" />
    <circle
       id="circle166"
       r="5.6999998"
       cy="475.39941"
       cx="748.48999"
       style="fill:#ffc107" />
    <circle
       id="circle168"
       r="5.6999998"
       cy="469.6994"
       cx="751.34003"
       style="fill:#ffc107" />
    <path
       id="path190"
       d="m 740.72,496.3394 c 6.25,3.69 16,6.09 28.35,-1.84 l -0.12,17.56 c 0.88,12 15.77,55.91 15.77,55.91 l 10.5,36.1 a 282.47,282.47 0 0 1 11.54,78.53 c 0,8.81 0.82,17.89 3.35,24.72 5.59,15.11 -2.2,34.58 -5.58,41.83 a 175.68,175.68 0 0 1 -17.33,4.88 11.84,11.84 0 0 0 -1.55,0.47 l -0.07,-0.1 c 0,0 -15.76,6.25 -22.76,5.39 -5.22,-0.64 -8.49,5.87 -4.4,10.66 -3.86,1 -7.82,1.71 -10.49,1.38 -7,-0.86 -10.51,11.18 2.63,14.62 13.14,3.44 87.59,0 87.59,0 a 10.56,10.56 0 0 0 5.6,-11.66 c 5.72,-0.22 9.29,-0.39 9.29,-0.39 0,0 13.14,-6 0,-22.37 l -0.7,0.53 -2.81,-8.27 v -11.17 c 0,0 16.64,-80 11.39,-89.46 -5.25,-9.46 -7.88,-57.63 -7.88,-57.63 l 1.78,-52.47 c 4.75,-9.8 7.18,-25.16 8.41,-37.17 a 78.87,78.87 0 0 0 3.36,-17.63 c 0.21,-2.82 0.38,-5.78 0.49,-8.85 a 59.33,59.33 0 0 0 -3.26,-19.79 c 5,-7.2 13.13,-18.33 19.84,-24.91 10.51,-10.32 7.88,-22.37 7.88,-22.37 l -4.38,-29.25 -10.51,-49.89 c 1.32,-13.84 -1.57,-21.81 -4.76,-26.31 0.76,-4.47 1.47,-8.94 2,-13.43 a 171.87,171.87 0 0 0 -3.07,-58.48 c -1.52,-6.69 -3.59,-13.55 -8.28,-18.62 -5.31,-5.74 -13.93,-9.24 -15.91,-16.76 -0.49,-1.87 -0.51,-3.86 -1.22,-5.66 -1.92,-4.92 -8,-6.71 -13.32,-7.35 -9.48,-1.15 -23.19,-2 -32.3,1.7 -6.36,2.6 -15.12,9.76 -18.6,17.44 -2,3.53 -2.93,7.24 -2.08,10.73 a 14.71,14.71 0 0 0 1.51,3.67 33,33 0 0 0 -2.04,11.49 33.56,33.56 0 0 0 21.42,31.13 c 0.21,0.66 0.4,1.31 0.56,1.95 a 33.42,33.42 0 0 1 0.86,4.69 c -0.17,3 -0.36,6.09 -0.5,9.14 q -0.15,0.63 -0.32,1.24 a 225.38,225.38 0 0 0 -22,11.22 c 5.26,7.74 -0.88,40.43 -0.88,40.43 -13.14,7.74 -26.28,27.53 -12.26,48.17 14.02,20.64 6.13,43 6.13,43 l -2.19,33.63 v 0 0.06 l -0.44,6.73 h 0.17 l -0.17,2.55 0.38,0.07 v 2.74 c -6.15,2.26 -15.14,6.82 -20.5,15.25 a 53.81,53.81 0 0 1 -9.17,11.25 6.76,6.76 0 0 0 1.05,10.97 z m 105.76,-89.36 a 32,32 0 0 1 3.11,-16.92 q 3.09,0.06 6.19,0.07 c 0.21,1.45 0.46,2.83 0.76,4.09 1.78,7.58 -5.33,11.21 -10.07,12.75 z"
       style="fill:url(#dee71953-6e04-4c93-a054-139b0acb5af5)"
       inkscape:connector-curvature="0" />
    <path
       id="path192"
       d="m 848.21,740.3694 3.37,10.11 -11,11 -36.24,8.43 -26.13,-2.53 1.69,-9.27 v 0 a 11.18,11.18 0 0 1 8.3,-8.17 c 10.74,-2.52 31.22,-8.28 35.52,-16.27 z"
       inkscape:connector-curvature="0"
       style="fill:#db8b8b" />
    <path
       id="path194"
       d="m 848.21,740.3694 3.37,10.11 -11,11 -36.24,8.43 -26.13,-2.53 1.69,-9.27 v 0 a 11.18,11.18 0 0 1 8.3,-8.17 c 10.74,-2.52 31.22,-8.28 35.52,-16.27 z"
       inkscape:connector-curvature="0"
       style="opacity:0.1" />
    <path
       id="path196"
       d="m 786.68,764.8094 5.06,-6.74 -5.06,-7.81 c 0,0 -15.17,6.12 -21.91,5.28 -6.74,-0.84 -10.11,11 2.53,14.33 12.64,3.33 84.28,0 84.28,0 0,0 12.64,-5.9 0,-21.91 l -11,8.43 c 0,0 -18.54,10.11 -27.81,8.43 z"
       inkscape:connector-curvature="0"
       style="fill:#2e3037" />
    <path
       id="path198"
       d="m 763.92,779.1194 26.13,2.53 36.24,-8.43 11,-11 -0.89,-2.68 -1.26,-3.76 -1.26,-3.66 -24.44,-6.74 a 15.14,15.14 0 0 1 -5,5 c -7.94,5.43 -22.2,9.35 -30.57,11.31 a 8.77,8.77 0 0 0 -1,0.31 11.14,11.14 0 0 0 -7.26,7.86 z"
       inkscape:connector-curvature="0"
       style="fill:#db8b8b" />
    <path
       id="path200"
       d="m 763.92,779.1194 26.13,2.53 36.24,-8.43 11,-11 -0.89,-2.68 -10.06,7.74 c 0,0 -18.54,10.11 -27.81,8.43 h -26.18 l 5.06,-6.74 -4.54,-7 a 11.14,11.14 0 0 0 -7.26,7.86 z"
       inkscape:connector-curvature="0"
       style="opacity:0.1" />
    <path
       id="path202"
       d="m 772.35,776.6094 5.06,-6.74 -5.06,-7.81 c 0,0 -15.17,6.12 -21.91,5.28 -6.74,-0.84 -10.11,11 2.53,14.33 12.64,3.33 84.28,0 84.28,0 0,0 12.64,-5.9 0,-21.91 l -11,8.43 c 0,0 -18.54,10.11 -27.81,8.43 z"
       inkscape:connector-curvature="0"
       style="fill:#2e3037" />
    <path
       id="path204"
       d="m 793.42,287.7794 c 0,0 40.46,4.21 34.56,-12.64 a 30.34,30.34 0 0 1 -1.25,-14.88 41.25,41.25 0 0 1 7.15,-17.14 l -37.93,5.9 a 47.5,47.5 0 0 1 5.14,12.18 c 4.52,17.87 -7.67,26.58 -7.67,26.58 z"
       inkscape:connector-curvature="0"
       style="fill:#db8b8b" />
    <path
       id="path206"
       d="m 862.53,479.9394 c 0,0 -0.84,36.24 -9.27,53.94 l -1.69,51.41 c 0,0 2.53,47.2 7.59,56.47 5.06,9.27 -11,87.65 -11,87.65 v 13.49 c 0,0 -27,10.11 -34.56,-1.69 l 7.59,-100.3 -3.37,-139.06 z"
       inkscape:connector-curvature="0"
       style="fill:#474463" />
    <path
       id="path208"
       d="m 862.53,479.9394 c 0,0 -0.84,36.24 -9.27,53.94 l -1.69,51.41 c 0,0 2.53,47.2 7.59,56.47 5.06,9.27 -11,87.65 -11,87.65 v 13.49 c 0,0 -27,10.11 -34.56,-1.69 l 7.59,-100.3 -3.37,-139.06 z"
       inkscape:connector-curvature="0"
       style="opacity:0.1" />
    <path
       id="path210"
       d="m 879.39,363.6294 5.06,13.49 4.21,28.66 a 25.35,25.35 0 0 1 -7.59,21.91 c -10.11,10.11 -23.6,31.18 -23.6,31.18 l -16,-48 c 0,0 16,-2.53 13.49,-13.49 -2.51,-10.96 -1.7,-31.26 -1.7,-31.26 z"
       inkscape:connector-curvature="0"
       style="fill:#fc6681" />
    <path
       id="path212"
       d="m 879.39,363.6294 5.06,13.49 4.21,28.66 a 25.35,25.35 0 0 1 -7.59,21.91 c -10.11,10.11 -23.6,31.18 -23.6,31.18 l -16,-48 c 0,0 16,-2.53 13.49,-13.49 -2.51,-10.96 -1.7,-31.26 -1.7,-31.26 z"
       inkscape:connector-curvature="0"
       style="opacity:0.05" />
    <path
       id="path214"
       d="m 804.48,750.3894 c 10.81,17 27.64,7.37 30.62,5.45 l -1.22,-3.72 -24.44,-6.74 a 15.14,15.14 0 0 1 -4.96,5.01 z"
       inkscape:connector-curvature="0"
       style="opacity:0.1" />
    <path
       id="path216"
       d="m 770.67,512.8094 c 0.84,11.8 15.17,54.78 15.17,54.78 l 10.11,35.37 a 281.44,281.44 0 0 1 11.11,76.94 c 0,8.63 0.79,17.53 3.23,24.22 6.74,18.54 -6.74,43.83 -6.74,43.83 11.8,21.07 32,6.74 32,6.74 v -13.48 c 0,0 16,-73.33 11.8,-87.65 -4.2,-14.32 -5.9,-53.1 -5.9,-53.1 v -70 a 79.38,79.38 0 0 0 23.13,-50.32 c 0.2,-2.76 0.36,-5.66 0.47,-8.67 0.68,-19 -12.32,-41.31 -17.4,-49.25 -1.22,-1.92 -2,-3 -2,-3 l -74.42,29.52 -0.17,0.07 v 2.88 6.37 z"
       inkscape:connector-curvature="0"
       style="fill:#474463" />
    <path
       id="path218"
       d="m 795.95,249.0094 a 47.5,47.5 0 0 1 5.14,12.18 33,33 0 0 0 25.64,-0.94 41.25,41.25 0 0 1 7.15,-17.13 z"
       inkscape:connector-curvature="0"
       style="opacity:0.1" />
    <circle
       id="circle220"
       r="32.869999"
       cy="228.76939"
       cx="812.81"
       style="fill:#db8b8b" />
    <path
       id="path222"
       d="m 770.67,458.0294 0.36,0.07 c 35.34,7.27 79.71,-29.57 79.71,-29.57 a 43.68,43.68 0 0 1 -3.07,-6.27 c -1.22,-1.92 -2,-3 -2,-3 l -74.42,29.52 -0.19,2.95 z"
       inkscape:connector-curvature="0"
       style="opacity:0.1" />
    <path
       id="path224"
       d="m 779.94,286.9294 c 0,0 47.2,-28.66 62.37,-16.86 l 21.07,27 c 0,0 13.49,4.21 11,31.18 l 10.07,48.87 -30.34,7.59 c 0,0 -17.7,16.86 -3.37,41.3 0,0 -44.67,37.08 -80.07,29.5 l 2.53,-39.61 c 0,0 7.59,-21.91 -5.9,-42.14 -13.49,-20.23 -0.84,-39.61 11.8,-47.2 0,-0.01 5.89,-32.04 0.84,-39.63 z"
       inkscape:connector-curvature="0"
       style="fill:#fc6681" />
    <path
       id="path226"
       d="m 777.41,458.8694 c 0,0 -17.7,3.37 -26.13,16.86 a 52.53,52.53 0 0 1 -8.82,11 6.69,6.69 0 0 0 1,10.66 c 6.69,4 17.6,6.49 31.38,-4.83 23.64,-19.36 2.57,-33.69 2.57,-33.69 z"
       inkscape:connector-curvature="0"
       style="fill:#db8b8b" />
    <path
       id="path228"
       d="m 803.54,302.9494 c 0,0 16.86,-1.69 21.07,42.14 4.21,43.83 11,53.94 11,53.94 0,0 4.21,22.76 -5.9,36.24 -10.11,13.48 -29.5,42.14 -29.5,42.14 0,0 -21.07,5.9 -25.28,-15.17 l 26.13,-48.88 c 0,0 4.21,-16.86 -5.9,-28.66 -10.11,-11.8 -17.75,-90.18 8.38,-81.75 z"
       inkscape:connector-curvature="0"
       style="opacity:0.1" />
    <path
       id="path230"
       d="m 801.82,300.4194 c 0,0 16.86,-1.69 21.07,42.14 4.21,43.83 11,53.94 11,53.94 0,0 4.21,22.76 -5.9,36.24 -10.11,13.48 -29.5,42.14 -29.5,42.14 0,0 -21.07,5.9 -25.28,-15.17 l 26.13,-48.88 c 0,0 4.21,-16.86 -5.9,-28.66 -10.11,-11.8 -17.72,-90.18 8.38,-81.75 z"
       inkscape:connector-curvature="0"
       style="fill:#fc6681" />
    <path
       id="path232"
       d="m 787.94,332.0194 c 0,0 -1.68,26.1 5.88,40.46 7.56,14.36 7.59,32.87 0,43"
       inkscape:connector-curvature="0"
       style="opacity:0.1" />
    <path
       id="path234"
       d="m 783.73,299.9994 c 0,0 6.74,-6.74 26.13,-7.59 19.39,-0.85 27.81,-6.74 27.81,-6.74"
       inkscape:connector-curvature="0"
       style="opacity:0.1" />
    <path
       id="path236"
       d="m 830.61,186.2994 c 5.12,0.63 11,2.39 12.82,7.2 0.68,1.77 0.7,3.72 1.17,5.55 1.91,7.36 10.2,10.79 15.31,16.42 4.51,5 6.5,11.69 8,18.24 a 171.4,171.4 0 0 1 3,57.26 c -1.64,14 -5,27.74 -5.94,41.78 -0.94,14.04 0.78,28.81 8.45,40.61 3.3,5.07 7.66,9.53 10,15.11 -4.83,3.92 -11.5,4.48 -17.73,4.69 q -10.87,0.37 -21.75,0 c -3.8,-0.13 -7.77,-0.38 -11.05,-2.3 a 17.06,17.06 0 0 1 -5.8,-6.23 c -4.15,-7 -5.19,-15.5 -5,-23.66 0.19,-8.16 1.47,-16.28 1.62,-24.45 0.08,-4.45 -0.27,-9.18 -2.83,-12.82 -1.85,-2.63 -4.66,-4.4 -7.06,-6.53 -9,-8 -12.12,-20.82 -12.42,-32.87 -0.3,-12.05 1.69,-24.12 0.67,-36.13 -0.4,-4.7 -2.16,-10.35 -6.78,-11.26 -1.46,-0.29 -3,0 -4.4,-0.56 -3.71,-1.43 -3.35,-6.66 -4.41,-10.49 -1.19,-4.3 -4.86,-7.62 -5.89,-12 -2.43,-10.2 10.55,-22.37 19.06,-25.92 8.65,-3.62 21.84,-2.76 30.96,-1.64 z"
       inkscape:connector-curvature="0"
       style="opacity:0.1" />
    <path
       id="path238"
       d="m 831.45,184.6194 c 5.12,0.63 11,2.39 12.82,7.2 0.68,1.77 0.7,3.72 1.17,5.55 1.91,7.36 10.2,10.79 15.31,16.42 4.51,5 6.5,11.69 8,18.24 a 171.4,171.4 0 0 1 3,57.26 c -1.64,14 -5,27.74 -5.94,41.78 -0.94,14.04 0.78,28.81 8.45,40.61 3.3,5.07 7.66,9.53 10,15.11 -4.83,3.92 -11.5,4.48 -17.73,4.69 q -10.87,0.37 -21.75,0 c -3.8,-0.13 -7.77,-0.38 -11.05,-2.3 a 17.06,17.06 0 0 1 -5.8,-6.23 c -4.15,-7 -5.19,-15.5 -5,-23.66 0.19,-8.16 1.47,-16.28 1.62,-24.45 0.08,-4.45 -0.27,-9.18 -2.83,-12.82 -1.85,-2.63 -4.66,-4.4 -7.06,-6.53 -9,-8 -12.12,-20.82 -12.42,-32.87 -0.3,-12.05 1.69,-24.12 0.67,-36.13 -0.4,-4.7 -2.16,-10.35 -6.78,-11.26 -1.46,-0.29 -3,0 -4.4,-0.56 -3.71,-1.43 -3.35,-6.66 -4.41,-10.49 -1.19,-4.3 -4.86,-7.62 -5.89,-12 -2.43,-10.2 10.55,-22.37 19.06,-25.92 8.65,-3.63 21.84,-2.77 30.96,-1.64 z"
       inkscape:connector-curvature="0"
       style="fill:#472727" />
  </g>
</svg>
